<svg width="50" height="50" viewBox="0 0 50 50" fill="none" xmlns="http://www.w3.org/2000/svg">
<path fill-rule="evenodd" clip-rule="evenodd" d="M22.2749 6.25C21.414 6.25 20.6497 6.80086 20.3775 7.61755L19.018 11.6961C18.1173 12.1017 17.2652 12.5961 16.4729 13.1681L12.2576 12.3056C11.4142 12.133 10.555 12.5194 10.1246 13.265L7.39944 17.985C6.96901 18.7306 7.06394 19.6679 7.63509 20.312L10.4897 23.5312C10.4414 24.0142 10.4167 24.5042 10.4167 25C10.4167 25.4958 10.4414 25.9858 10.4897 26.4688L7.63509 29.688C7.06393 30.3321 6.96901 31.2694 7.39944 32.015L10.1246 36.7351C10.555 37.4806 11.4142 37.867 12.2576 37.6944L16.4729 36.8319C17.2652 37.4039 18.1173 37.8983 19.018 38.3039L20.3775 42.3825C20.6497 43.1991 21.414 43.75 22.2749 43.75H27.7252C28.586 43.75 29.3503 43.1991 29.6225 42.3825L30.982 38.3039C31.8827 37.8983 32.7348 37.4039 33.5272 36.8319L37.7424 37.6944C38.5858 37.867 39.445 37.4806 39.8754 36.735L42.6006 32.015C43.031 31.2694 42.9361 30.3321 42.3649 29.688L39.5103 26.4688C39.5586 25.9858 39.5833 25.4958 39.5833 25C39.5833 24.5042 39.5586 24.0142 39.5103 23.5312L42.3649 20.312C42.9361 19.6679 43.031 18.7306 42.6005 17.9851L39.8754 13.265C39.445 12.5194 38.5858 12.133 37.7424 12.3056L33.5271 13.1681C32.7348 12.5961 31.8827 12.1017 30.982 11.6961L29.6225 7.61754C29.3503 6.80086 28.586 6.25 27.7252 6.25H22.2749Z" fill="#FFD2D2"/>
<path d="M20.3775 7.61755L18.9545 7.1432V7.1432L20.3775 7.61755ZM19.018 11.6961L19.6339 13.0638L20.2332 12.7939L20.441 12.1704L19.018 11.6961ZM16.4729 13.1681L16.1721 14.6377L16.8171 14.7697L17.3509 14.3843L16.4729 13.1681ZM12.2576 12.3056L11.9569 13.7751L11.9569 13.7751L12.2576 12.3056ZM10.1246 13.265L11.4236 14.015L10.1246 13.265ZM7.39944 17.985L8.69848 18.735L7.39944 17.985ZM7.63509 20.312L8.7574 19.3168H8.75739L7.63509 20.312ZM10.4897 23.5312L11.9823 23.6805L12.0476 23.0272L11.612 22.536L10.4897 23.5312ZM10.4897 26.4688L11.612 27.464L12.0476 26.9728L11.9823 26.3195L10.4897 26.4688ZM7.63509 29.688L8.75739 30.6832H8.75739L7.63509 29.688ZM7.39944 32.015L8.69848 31.265H8.69848L7.39944 32.015ZM10.1246 36.7351L8.82555 37.4851H8.82555L10.1246 36.7351ZM12.2576 37.6944L11.9569 36.2249H11.9569L12.2576 37.6944ZM16.4729 36.8319L17.3509 35.6157L16.8171 35.2303L16.1721 35.3623L16.4729 36.8319ZM19.018 38.3039L20.441 37.8296L20.2332 37.2061L19.6339 36.9362L19.018 38.3039ZM20.3775 42.3825L21.8005 41.9081L20.3775 42.3825ZM29.6225 42.3825L28.1995 41.9081L29.6225 42.3825ZM30.982 38.3039L30.3661 36.9362L29.7668 37.2061L29.559 37.8296L30.982 38.3039ZM33.5272 36.8319L33.8279 35.3623L33.1829 35.2303L32.6491 35.6157L33.5272 36.8319ZM37.7424 37.6944L37.4417 39.164H37.4417L37.7424 37.6944ZM39.8754 36.735L38.5764 35.985L38.5764 35.9851L39.8754 36.735ZM42.6006 32.015L43.8996 32.765L43.8996 32.7649L42.6006 32.015ZM42.3649 29.688L41.2426 30.6832L42.3649 29.688ZM39.5103 26.4688L38.0177 26.3195L37.9524 26.9728L38.388 27.464L39.5103 26.4688ZM39.5103 23.5312L38.388 22.536L37.9524 23.0272L38.0177 23.6804L39.5103 23.5312ZM42.3649 20.312L41.2426 19.3168V19.3168L42.3649 20.312ZM42.6005 17.9851L41.3015 18.7351V18.7351L42.6005 17.9851ZM39.8754 13.265L41.1744 12.515V12.515L39.8754 13.265ZM37.7424 12.3056L37.4417 10.836L37.7424 12.3056ZM33.5271 13.1681L32.6491 14.3843L33.1829 14.7697L33.8279 14.6377L33.5271 13.1681ZM30.982 11.6961L29.559 12.1704L29.7668 12.7939L30.3661 13.0638L30.982 11.6961ZM29.6225 7.61754L28.1995 8.09189L29.6225 7.61754ZM21.8005 8.09189C21.8686 7.88772 22.0596 7.75 22.2749 7.75V4.75C20.7683 4.75 19.4309 5.71401 18.9545 7.1432L21.8005 8.09189ZM20.441 12.1704L21.8005 8.09189L18.9545 7.1432L17.5949 11.2217L20.441 12.1704ZM17.3509 14.3843C18.062 13.8709 18.8264 13.4275 19.6339 13.0638L18.402 10.3284C17.4082 10.776 16.4684 11.3213 15.5948 11.952L17.3509 14.3843ZM11.9569 13.7751L16.1721 14.6377L16.7736 11.6986L12.5583 10.836L11.9569 13.7751ZM11.4236 14.015C11.5312 13.8286 11.746 13.732 11.9569 13.7751L12.5583 10.836C11.0824 10.534 9.57881 11.2103 8.82556 12.515L11.4236 14.015ZM8.69848 18.735L11.4236 14.015L8.82556 12.515L6.10041 17.235L8.69848 18.735ZM8.75739 19.3168C8.61461 19.1558 8.59088 18.9214 8.69848 18.735L6.10041 17.235C5.34715 18.5397 5.51327 20.18 6.51279 21.3072L8.75739 19.3168ZM11.612 22.536L8.7574 19.3168L6.51279 21.3072L9.36741 24.5264L11.612 22.536ZM11.9167 25C11.9167 24.5542 11.9389 24.114 11.9823 23.6805L8.99717 23.3819C8.9439 23.9145 8.91667 24.4543 8.91667 25H11.9167ZM11.9823 26.3195C11.9389 25.886 11.9167 25.4458 11.9167 25H8.91667C8.91667 25.5457 8.9439 26.0855 8.99716 26.6181L11.9823 26.3195ZM8.75739 30.6832L11.612 27.464L9.36741 25.4736L6.51278 28.6928L8.75739 30.6832ZM8.69848 31.265C8.59087 31.0786 8.6146 30.8442 8.75739 30.6832L6.51278 28.6928C5.51326 29.82 5.34715 31.4603 6.1004 32.765L8.69848 31.265ZM11.4236 35.9851L8.69848 31.265L6.1004 32.765L8.82555 37.4851L11.4236 35.9851ZM11.9569 36.2249C11.746 36.268 11.5312 36.1714 11.4236 35.9851L8.82555 37.4851C9.57881 38.7897 11.0824 39.466 12.5583 39.164L11.9569 36.2249ZM16.1721 35.3623L11.9569 36.2249L12.5583 39.164L16.7736 38.3014L16.1721 35.3623ZM19.6339 36.9362C18.8264 36.5725 18.062 36.1291 17.3509 35.6157L15.5948 38.048C16.4684 38.6787 17.4082 39.224 18.402 39.6716L19.6339 36.9362ZM21.8005 41.9081L20.441 37.8296L17.5949 38.7783L18.9545 42.8568L21.8005 41.9081ZM22.2749 42.25C22.0596 42.25 21.8686 42.1123 21.8005 41.9081L18.9545 42.8568C19.4309 44.286 20.7683 45.25 22.2749 45.25V42.25ZM27.7252 42.25H22.2749V45.25H27.7252V42.25ZM28.1995 41.9081C28.1314 42.1123 27.9404 42.25 27.7252 42.25V45.25C29.2317 45.25 30.5691 44.286 31.0455 42.8568L28.1995 41.9081ZM29.559 37.8296L28.1995 41.9081L31.0455 42.8568L32.4051 38.7783L29.559 37.8296ZM32.6491 35.6157C31.938 36.1291 31.1736 36.5725 30.3661 36.9362L31.598 39.6716C32.5918 39.224 33.5316 38.6787 34.4052 38.048L32.6491 35.6157ZM38.0431 36.2249L33.8279 35.3623L33.2264 38.3014L37.4417 39.164L38.0431 36.2249ZM38.5764 35.9851C38.4688 36.1714 38.254 36.268 38.0431 36.2249L37.4417 39.164C38.9176 39.466 40.4212 38.7897 41.1744 37.485L38.5764 35.9851ZM41.3015 31.265L38.5764 35.985L41.1744 37.485L43.8996 32.765L41.3015 31.265ZM41.2426 30.6832C41.3854 30.8442 41.4091 31.0786 41.3015 31.265L43.8996 32.7649C44.6528 31.4603 44.4867 29.82 43.4872 28.6928L41.2426 30.6832ZM38.388 27.464L41.2426 30.6832L43.4872 28.6928L40.6326 25.4736L38.388 27.464ZM38.0833 25C38.0833 25.4458 38.0611 25.886 38.0177 26.3195L41.0028 26.6181C41.0561 26.0855 41.0833 25.5457 41.0833 25H38.0833ZM38.0177 23.6804C38.0611 24.114 38.0833 24.5542 38.0833 25H41.0833C41.0833 24.4543 41.0561 23.9145 41.0028 23.3819L38.0177 23.6804ZM41.2426 19.3168L38.388 22.536L40.6326 24.5264L43.4872 21.3072L41.2426 19.3168ZM41.3015 18.7351C41.4091 18.9214 41.3854 19.1558 41.2426 19.3168L43.4872 21.3072C44.4867 20.18 44.6528 18.5397 43.8996 17.235L41.3015 18.7351ZM38.5764 14.015L41.3015 18.7351L43.8996 17.2351L41.1744 12.515L38.5764 14.015ZM38.0431 13.7751C38.254 13.732 38.4688 13.8286 38.5764 14.015L41.1744 12.515C40.4212 11.2103 38.9176 10.534 37.4417 10.836L38.0431 13.7751ZM33.8279 14.6377L38.0431 13.7751L37.4417 10.836L33.2264 11.6986L33.8279 14.6377ZM30.3661 13.0638C31.1736 13.4275 31.938 13.8709 32.6491 14.3843L34.4052 11.952C33.5316 11.3213 32.5918 10.776 31.598 10.3284L30.3661 13.0638ZM28.1995 8.09189L29.559 12.1704L32.4051 11.2217L31.0455 7.1432L28.1995 8.09189ZM27.7252 7.75C27.9404 7.75 28.1314 7.88772 28.1995 8.09189L31.0455 7.1432C30.5691 5.714 29.2317 4.75 27.7252 4.75V7.75ZM22.2749 7.75H27.7252V4.75H22.2749V7.75Z" fill="#FF8282"/>
<path fill-rule="evenodd" clip-rule="evenodd" d="M25 27.0833C26.1506 27.0833 27.0833 26.1506 27.0833 25C27.0833 23.8494 26.1506 22.9167 25 22.9167C23.8494 22.9167 22.9167 23.8494 22.9167 25C22.9167 26.1506 23.8494 27.0833 25 27.0833Z" stroke="#FF8282" stroke-width="2"/>
</svg>
