<svg width="23" height="18" viewBox="0 0 23 18" fill="none" xmlns="http://www.w3.org/2000/svg">
<path fill-rule="evenodd" clip-rule="evenodd" d="M21.9201 5.24961C23.1625 4.15343 23.281 2.25764 22.1849 1.01524C21.0887 -0.227167 19.1929 -0.345709 17.9505 0.750465C15.9617 2.50516 12.958 5.2 10.4093 7.58373C9.59085 8.34915 8.8091 9.09204 8.11778 9.76721L5.44359 6.01356C4.48223 4.66413 2.60896 4.34954 1.25954 5.3109C-0.0898886 6.27226 -0.404477 8.14553 0.556884 9.49495L4.8887 15.5754C5.18768 16.4923 5.92259 17.2488 6.91988 17.533C8.3115 17.9296 9.75378 17.2753 10.3992 16.0418C10.4167 16.0205 10.4381 15.9948 10.4642 15.9642C10.6499 15.7465 10.9435 15.43 11.3483 15.0171C12.1498 14.1994 13.2579 13.1347 14.5077 11.9659C16.9999 9.63499 19.9573 6.98134 21.9201 5.24961Z" fill="#267dff"/>
</svg>