<svg width="14" height="13" viewBox="0 0 14 13" fill="none" xmlns="http://www.w3.org/2000/svg">
<path fill-rule="evenodd" clip-rule="evenodd" d="M12.8972 4.33111C13.9085 3.39108 13.9663 1.80922 13.0263 0.797935C12.0862 -0.213356 10.5044 -0.271123 9.4931 0.668907L6.84362 3.13169L4.10974 0.831079C3.05331 -0.0579222 1.47622 0.077805 0.587222 1.13423C-0.301779 2.19066 -0.166052 3.76775 0.890377 4.65675L3.15383 6.56148L1.35896 8.22988C0.347665 9.16991 0.289898 10.7518 1.22993 11.7631C2.16996 12.7744 3.75182 12.8321 4.76311 11.8921L7.00832 9.80509L9.58549 11.9738C10.6419 12.8628 12.219 12.7271 13.108 11.6707C13.997 10.6142 13.8613 9.03715 12.8049 8.14815L10.6981 6.37529L12.8972 4.33111Z" fill="#61A0FE"/>
</svg>
